<svg xmlns="http://www.w3.org/2000/svg" xmlns:xlink="http://www.w3.org/1999/xlink" width="160" height="19" viewBox="0 0 160 19">
    <defs>
        <path id="a" d="M.803.643h18.936v17.801H.803z"/>
    </defs>
    <g fill="none" fill-rule="evenodd">
        <path fill="#FFF" d="M-632-685H808V80H-632z"/>
        <path fill="#1F2A4B" d="M151.897 12.889a4.04 4.04 0 0 1-4.035-4.035 4.04 4.04 0 0 1 4.035-4.036 4.04 4.04 0 0 1 4.036 4.036 4.04 4.04 0 0 1-4.036 4.035m0-12.02a7.985 7.985 0 0 0-7.984 7.985c0 1.765.58 3.391 1.551 4.713v5.505s2.187-1.611 3.67-2.736c.863.318 1.79.5 2.763.5a7.984 7.984 0 1 0 0-15.966M59.657 16.452l3.184 2.219 3.867-5.574 4.037 5.574 3.015-2.219-3.98-5.345 6.482-2.162-1.365-3.696-6.199 2.447V.87h-3.867v6.826l-6.256-2.447-1.25 3.696 6.312 2.162zM131.92 5.249l-6.197 2.447V.87h-3.868v6.826l-6.257-2.447-1.25 3.696 6.312 2.161-3.98 5.346 3.184 2.218 3.868-5.573 4.038 5.573 3.012-2.218-3.981-5.346 6.482-2.16z"/>
        <g transform="translate(0 .226)">
            <mask id="b" fill="#fff">
                <use xlink:href="#a"/>
            </mask>
            <path fill="#1F2A4B" d="M12.177 7.47V.642H8.31V7.47L2.053 5.023.803 8.72l6.312 2.162-3.98 5.345 3.184 2.218 3.867-5.574 4.038 5.574 3.014-2.218-3.981-5.345 6.482-2.162-1.364-3.696z" mask="url(#b)"/>
        </g>
        <path fill="#1F2A4B" d="M103.224 5.249l-6.198 2.447V.87H93.16v6.826l-6.256-2.447-1.25 3.696 6.311 2.161-3.98 5.346 3.185 2.218 3.867-5.573 4.037 5.573 3.014-2.218-3.98-5.346 6.482-2.16zM36.494 9.658v8.946H40.6V9.605l4.52 6.244 2.819-2.04L38.587.895l-9.429 12.91 2.81 2.05z"/>
    </g>
</svg>
