<svg xmlns="http://www.w3.org/2000/svg" width="21" height="23" viewBox="0 0 21 23">
    <g fill="#FFF" fill-rule="evenodd">
        <path d="M13.108 7.878L14.622 9l1.838-2.818L18.378 9l1.433-1.122-1.892-2.702L21 4.083l-.648-1.869-2.947 1.237V0h-1.837v3.451l-2.974-1.237L12 4.083l3 1.093zM20.352 16.214l-2.946 1.237V14h-1.838v3.45l-2.974-1.236L12 18.083l3 1.093-1.892 2.702L14.622 23l1.838-2.819L18.38 23l1.43-1.122-1.891-2.702L21 18.083zM8.352 16.214l-2.946 1.237V14H3.568v3.45L.594 16.215 0 18.083l3 1.093-1.892 2.702L2.622 23l1.838-2.819L6.38 23l1.43-1.122-1.891-2.702L9 18.083zM8.352 2.214L5.406 3.451V0H3.568v3.45L.594 2.215 0 4.083l3 1.093-1.892 2.702L2.622 9 4.46 6.181 6.38 9l1.43-1.122L5.92 5.176 9 4.083z"/>
    </g>
</svg>
