<svg xmlns="http://www.w3.org/2000/svg" width="25" height="24" viewBox="0 0 25 24">
    <g fill="#1F2A4B" fill-rule="nonzero">
        <path d="M23.75 12.857h-.417V3.859c0-2.142-1.666-3.856-3.75-3.856-1.844 0-3.17 1.407-3.319 3.467-.968.188-1.68 1.046-1.68 2.103 0 .257.166.429.416.429h3.333c.25 0 .417-.172.417-.429 0-1.046-.697-1.896-1.649-2.097.125-1.361.92-2.616 2.482-2.616 1.625 0 2.917 1.328 2.917 3v8.997H9.96c-.189-.988-1.02-1.714-2.043-1.714-.417-.514-1-.857-1.667-.857-.792 0-1.5.471-1.833 1.157-.334-.171-.709-.3-1.084-.3-1.023 0-1.854.726-2.043 1.714h-.04c-.708 0-1.25.557-1.25 1.285 0 .729.542 1.286 1.25 1.286h.5l1.125 4.584c.333 1.328 1.5 2.27 2.833 2.27h.334L5.5 23.398c-.125.214-.042.471.167.557.041.043.125.043.166.043a.435.435 0 0 0 .375-.215l.73-1.5H18.5l.708 1.458c.084.17.209.257.375.257.084 0 .125 0 .167-.086.167-.086.25-.343.167-.557l-.522-1.073c1.29-.048 2.405-.974 2.73-2.226l1.135-4.627h.49c.708 0 1.25-.557 1.25-1.286 0-.728-.542-1.285-1.25-1.285zm-5.875-7.712H15.5c.167-.514.667-.857 1.208-.857.542 0 1 .343 1.167.857zM3.333 12c.375 0 .709.171 1 .471.084.129.25.172.417.129.167-.043.25-.172.292-.343.125-.643.625-1.114 1.25-1.114.458 0 .875.214 1.083.643a.415.415 0 0 0 .458.214h.125c.542 0 1 .343 1.167.857H2.167A1.217 1.217 0 0 1 3.333 12zm18.042 7.798c-.25.942-1.083 1.628-2.042 1.628H5.75c-.958 0-1.792-.686-2.042-1.628l-1.083-4.37h19.75l-1 4.37zm2.375-5.227H1.25c-.25 0-.417-.172-.417-.429s.167-.428.417-.428h22.5c.25 0 .417.171.417.428s-.167.429-.417.429z"/>
        <path d="M15 7.93c.25 0 .417-.172.417-.429v-.214c0-.257-.167-.428-.417-.428-.25 0-.417.17-.417.428v.214c0 .257.167.429.417.429zM15 9.9c.25 0 .417-.214.417-.428v-.471c0-.257-.167-.429-.417-.429-.25 0-.417.172-.417.429v.471c0 .257.167.429.417.429zM15 11.572c.25 0 .417-.172.417-.429v-.214c0-.257-.167-.429-.417-.429-.25 0-.417.172-.417.429v.214c0 .257.167.429.417.429zM16.667 7.93c.25 0 .416-.172.416-.429v-.214c0-.257-.166-.428-.416-.428-.25 0-.417.17-.417.428v.214c0 .257.167.429.417.429zM16.25 9.472c0 .257.167.429.417.429.25 0 .416-.215.416-.429v-.471c0-.257-.166-.429-.416-.429-.25 0-.417.172-.417.429v.471zM16.25 11.143c0 .257.167.429.417.429.25 0 .416-.172.416-.429v-.214c0-.257-.166-.429-.416-.429-.25 0-.417.172-.417.429v.214zM18.333 7.93c.25 0 .417-.172.417-.429v-.214c0-.257-.167-.428-.417-.428-.25 0-.416.17-.416.428v.214c0 .257.166.429.416.429zM17.917 9.472c0 .257.166.429.416.429.25 0 .417-.215.417-.429v-.471c0-.257-.167-.429-.417-.429-.25 0-.416.172-.416.429v.471zM17.917 11.143c0 .257.166.429.416.429.25 0 .417-.172.417-.429v-.214c0-.257-.167-.429-.417-.429-.25 0-.416.172-.416.429v.214z"/>
    </g>
</svg>
