<svg xmlns="http://www.w3.org/2000/svg" width="20" height="20" viewBox="0 0 20 20">
    <g fill="#1F2A4B" fill-rule="nonzero">
        <path d="M10 0C4.486 0 0 4.486 0 10s4.486 10 10 10 10-4.486 10-10S15.514 0 10 0zm0 18.856c-4.883 0-8.856-3.973-8.856-8.856S5.117 1.144 10 1.144 18.856 5.117 18.856 10 14.883 18.856 10 18.856z"/>
        <path d="M12.317 4.667H10.96c-1.11 0-2.013.893-2.013 1.992v1.51H7.683a.57.57 0 0 0-.572.566.57.57 0 0 0 .572.567h1.264v5.243a.57.57 0 0 0 .572.566.57.57 0 0 0 .572-.566V9.302h1.955a.57.57 0 0 0 .573-.567.57.57 0 0 0-.573-.566h-1.955V6.66c0-.474.39-.86.87-.86h1.356a.57.57 0 0 0 .572-.566.57.57 0 0 0-.572-.566z"/>
    </g>
</svg>
