<?xml version="1.0" encoding="utf-8"?>
<!-- Generator: Adobe Illustrator 19.0.0, SVG Export Plug-In . SVG Version: 6.00 Build 0)  -->
<svg version="1.1" id="Layer_1" xmlns="http://www.w3.org/2000/svg" xmlns:xlink="http://www.w3.org/1999/xlink" x="0px" y="0px"
	 viewBox="0 0 58 29" style="enable-background:new 0 0 58 29;" xml:space="preserve">
<style type="text/css">
	.st0{fill:#FFFFFF;}
</style>
<g id="XMLID_2_">
	<g id="XMLID_15_">
		<g id="XMLID_33_">
			<path id="XMLID_34_" class="st0" d="M9,1.5c0.5,0.2,1.1,0.5,1.6,0.9c0.2,0.1,0.3,0.2,0.4,0.2c0.1,0,0.2-0.1,0.3-0.3
				c0.1-0.2,0.1-0.5,0.2-0.9h0.4c-0.1,0.9-0.1,2.4-0.1,4.7h-0.4c-0.1-0.9-0.3-1.6-0.5-2.1c-0.2-0.5-0.5-1-1-1.4
				C9.6,2.3,9.2,2,8.8,1.9C8.3,1.7,7.9,1.6,7.4,1.6c-0.9,0-1.6,0.3-2.2,0.9C4.6,3.2,4.1,4,3.8,5C3.6,6,3.4,7.1,3.4,8.2
				c0,4.4,1.2,6.7,3.7,6.7c0.6,0,1-0.1,1.4-0.4c0.2-0.1,0.3-0.2,0.4-0.4c0.1-0.2,0.1-0.4,0.1-0.6v-1.9c0-0.6-0.1-1-0.2-1.3
				C8.7,10,8.5,9.8,8.2,9.7C8,9.6,7.6,9.6,7,9.6V9.2c0.8,0,1.9,0.1,3.3,0.1c1.1,0,2,0,2.6-0.1v0.4c-0.3,0-0.4,0.1-0.6,0.2
				c-0.1,0.1-0.2,0.2-0.2,0.4c0,0.2-0.1,0.6-0.1,1.1V15h-0.4c0-0.3-0.1-0.5-0.2-0.8c-0.1-0.2-0.2-0.3-0.4-0.3c-0.2,0-0.6,0.1-1,0.4
				c-1.1,0.6-2.2,1-3.2,1c-2.2,0-3.9-0.6-5.1-1.8C0.6,12.3,0,10.6,0,8.4c0-1.4,0.3-2.7,0.9-3.8C1.5,3.5,2.3,2.6,3.4,2
				C4.4,1.4,5.6,1.1,7,1.1C7.8,1.1,8.4,1.2,9,1.5z"/>
		</g>
		<g id="XMLID_29_">
			<path id="XMLID_30_" class="st0" d="M23.3,6.1c0.8,0.8,1.3,2.2,1.3,4c0,1.8-0.4,3.1-1.3,4c-0.8,0.8-2,1.3-3.5,1.3
				c-1.5,0-2.6-0.4-3.5-1.3c-0.8-0.8-1.3-2.2-1.3-4c0-1.8,0.4-3.2,1.3-4c0.8-0.8,2-1.3,3.5-1.3C21.4,4.8,22.5,5.2,23.3,6.1z
				 M18.6,6.4c-0.3,0.8-0.5,2-0.5,3.7s0.2,2.9,0.5,3.7c0.3,0.8,0.8,1.2,1.3,1.2c0.6,0,1-0.4,1.3-1.2c0.3-0.8,0.5-2,0.5-3.7
				c0-1.7-0.2-2.9-0.5-3.7c-0.3-0.8-0.8-1.2-1.3-1.2C19.3,5.2,18.9,5.6,18.6,6.4z"/>
		</g>
		<g id="XMLID_26_">
			<path id="XMLID_27_" class="st0" d="M30.8,5.1h2.3v0.4h-2.3v7.8c0,0.4,0.1,0.7,0.2,0.8c0.1,0.2,0.3,0.2,0.6,0.2
				c0.6,0,1-0.4,1.3-1.2l0.3,0.2c-0.5,1.3-1.4,2-2.6,2c-0.8,0-1.5-0.2-1.9-0.7c-0.3-0.3-0.5-0.6-0.5-1c-0.1-0.4-0.1-1-0.1-1.7V5.5
				h-1.6V5.1h1.6V2.5c1.1,0,2-0.2,2.8-0.6V5.1z"/>
		</g>
		<g id="XMLID_22_">
			<path id="XMLID_23_" class="st0" d="M43.1,12.2l0.3,0.1c-0.3,0.8-0.7,1.5-1.4,2.1c-0.7,0.6-1.5,0.9-2.5,0.9
				c-1.4,0-2.4-0.4-3.2-1.3c-0.8-0.9-1.2-2.1-1.2-3.8c0-1.7,0.4-3.1,1.3-4c0.9-0.9,2-1.4,3.4-1.4c2.4,0,3.6,1.4,3.6,4.3H38
				c0,0.2,0,0.5,0,0.9c0,0.8,0.1,1.6,0.4,2.1c0.2,0.6,0.5,1,0.9,1.2c0.4,0.3,0.8,0.4,1.2,0.4C41.6,13.7,42.4,13.2,43.1,12.2z
				 M38.6,6.1c-0.3,0.6-0.5,1.5-0.6,2.6h3c0-1-0.1-1.8-0.3-2.5c-0.2-0.7-0.6-1-1-1C39.3,5.2,38.9,5.5,38.6,6.1z"/>
		</g>
		<g id="XMLID_19_">
			<path id="XMLID_20_" class="st0" d="M49.6,13.2c0,0.5,0.1,0.9,0.3,1.1c0.2,0.2,0.5,0.3,1,0.3V15c-1.3-0.1-2.2-0.1-2.6-0.1
				c-0.4,0-1.3,0-2.7,0.1v-0.4c0.4,0,0.8-0.1,1-0.3c0.2-0.2,0.3-0.6,0.3-1.1v-11c0-0.6-0.1-1-0.3-1.3c-0.2-0.3-0.5-0.4-1-0.4V0.2
				c0.4,0,0.8,0.1,1.2,0.1c1.1,0,2.1-0.1,2.8-0.3V13.2z"/>
		</g>
		<g id="XMLID_16_">
			<path id="XMLID_17_" class="st0" d="M56.8,13.2c0,0.5,0.1,0.9,0.3,1.1c0.2,0.2,0.5,0.3,1,0.3V15c-1.3-0.1-2.2-0.1-2.6-0.1
				c-0.4,0-1.3,0-2.7,0.1v-0.4c0.4,0,0.8-0.1,1-0.3c0.2-0.2,0.3-0.6,0.3-1.1v-11c0-0.6-0.1-1-0.3-1.3c-0.2-0.3-0.5-0.4-1-0.4V0.2
				c0.4,0,0.8,0.1,1.2,0.1c1.1,0,2.1-0.1,2.8-0.3V13.2z"/>
		</g>
	</g>
	<g id="XMLID_3_">
		<path id="XMLID_13_" class="st0" d="M14.5,25h0.9v1.5H17V25h0.9v4H17v-1.7h-1.7v1.7h-0.9V25z"/>
		<path id="XMLID_10_" class="st0" d="M21.2,26.9c0-0.3,0.1-0.6,0.2-0.9c0.1-0.3,0.3-0.5,0.4-0.7c0.2-0.2,0.4-0.3,0.7-0.4
			c0.3-0.1,0.5-0.1,0.9-0.1c0.3,0,0.6,0,0.9,0.1c0.3,0.1,0.5,0.2,0.7,0.4c0.2,0.2,0.3,0.4,0.4,0.7c0.1,0.3,0.2,0.5,0.2,0.9
			c0,0.3-0.1,0.6-0.2,0.9c-0.1,0.3-0.3,0.5-0.4,0.7c-0.2,0.2-0.4,0.3-0.7,0.4C24,29,23.7,29,23.4,29c-0.3,0-0.6,0-0.9-0.1
			c-0.3-0.1-0.5-0.2-0.7-0.4c-0.2-0.2-0.3-0.4-0.4-0.7C21.3,27.6,21.2,27.3,21.2,26.9z M22.1,26.9c0,0.2,0,0.4,0.1,0.5
			c0.1,0.2,0.1,0.3,0.2,0.4c0.1,0.1,0.2,0.2,0.4,0.3c0.2,0.1,0.3,0.1,0.5,0.1c0.2,0,0.4,0,0.5-0.1c0.2-0.1,0.3-0.2,0.4-0.3
			c0.1-0.1,0.2-0.2,0.2-0.4c0.1-0.2,0.1-0.3,0.1-0.5c0-0.2,0-0.4-0.1-0.5c-0.1-0.2-0.1-0.3-0.2-0.4c-0.1-0.1-0.2-0.2-0.4-0.3
			c-0.2-0.1-0.3-0.1-0.5-0.1c-0.2,0-0.4,0-0.5,0.1c-0.2,0.1-0.3,0.2-0.4,0.3c-0.1,0.1-0.2,0.2-0.2,0.4
			C22.2,26.6,22.1,26.8,22.1,26.9z"/>
		<path id="XMLID_8_" class="st0" d="M29.6,25.7h-1.1V25h3.1v0.8h-1.1v3.2h-0.9V25.7z"/>
		<path id="XMLID_6_" class="st0" d="M34.8,25h2.7v0.8h-1.8v0.7h1.7v0.8h-1.7v0.8h1.9v0.8h-2.8V25z"/>
		<path id="XMLID_4_" class="st0" d="M41.1,25h0.9v3.2h1.6v0.8h-2.5V25z"/>
	</g>
</g>
</svg>
