<?xml version="1.0" encoding="UTF-8"?>
<svg width="11px" height="10px" viewBox="0 0 11 10" version="1.1" xmlns="http://www.w3.org/2000/svg" xmlns:xlink="http://www.w3.org/1999/xlink">
    <!-- Generator: Sketch 51.2 (57519) - http://www.bohemiancoding.com/sketch -->
    <title>like (1) copy 2@1x</title>
    <desc>Created with Sketch.</desc>
    <defs></defs>
    <g id="Page-1" stroke="none" stroke-width="1" fill="none" fill-rule="evenodd">
        <g id="Modern-Room-Inner-page" transform="translate(-568.000000, -1517.000000)" fill="#1F2A4B" fill-rule="nonzero">
            <g id="like-(1)-copy-2" transform="translate(568.000000, 1517.000000)">
                <path d="M8.078125,0 C7.48122461,0 6.93397461,0.189148438 6.45160742,0.562203125 C5.98915625,0.919853516 5.68126367,1.37538672 5.5,1.70663281 C5.31873633,1.37536523 5.01084375,0.919853516 4.54839258,0.562203125 C4.06602539,0.189148438 3.51877539,0 2.921875,0 C1.25614844,0 0,1.36247461 0,3.16924609 C0,5.1211875 1.56713477,6.45667773 3.93956836,8.47842188 C4.34244336,8.82176367 4.79909375,9.21093164 5.27372656,9.62598828 C5.33628906,9.68077344 5.41664063,9.7109375 5.5,9.7109375 C5.58335937,9.7109375 5.66371094,9.68077344 5.72627344,9.62600977 C6.20094922,9.21088867 6.65757812,8.82174219 7.06068945,8.47820703 C9.43286523,6.45667773 11,5.1211875 11,3.16924609 C11,1.36247461 9.74385156,0 8.078125,0 Z" id="Shape"></path>
            </g>
        </g>
    </g>
</svg>