<svg xmlns="http://www.w3.org/2000/svg" xmlns:xlink="http://www.w3.org/1999/xlink" width="111" height="131" viewBox="0 0 111 131">
    <defs>
        <path id="a" d="M0 .793h24.539v26.996H0z"/>
        <path id="c" d="M.648.555h9.976v28.72H.648z"/>
        <path id="e" d="M.923.74H22.7v20.47H.923z"/>
        <path id="g" d="M.483.071h8.143V8H.483z"/>
    </defs>
    <g fill="none" fill-rule="evenodd">
        <g transform="translate(0 76.26)">
            <mask id="b" fill="#fff">
                <use xlink:href="#a"/>
            </mask>
            <path fill="#1F2A4B" d="M17.11 1.416c1.04.416 2.06 1.003 3.064 1.761.294.22.538.33.733.33.245 0 .44-.177.587-.531.147-.355.257-.912.33-1.669h.844c-.098 1.663-.147 4.621-.147 8.876h-.843c-.196-1.663-.483-3.008-.862-4.035a5.943 5.943 0 0 0-1.89-2.604c-.586-.563-1.308-1.003-2.163-1.32a7.534 7.534 0 0 0-2.641-.478c-1.712 0-3.136.582-4.273 1.743C8.712 4.65 7.874 6.185 7.336 8.092c-.538 1.907-.807 3.998-.807 6.272 0 8.461 2.348 12.692 7.043 12.692 1.075 0 1.944-.245 2.604-.735.317-.219.544-.476.679-.769.134-.294.2-.673.2-1.138v-3.595c0-1.148-.097-1.986-.292-2.511-.196-.527-.545-.887-1.045-1.082-.502-.196-1.291-.318-2.366-.368v-.733c1.515.073 3.606.11 6.272.11 2.176 0 3.814-.037 4.915-.11v.733c-.49.05-.844.147-1.064.294-.22.147-.373.428-.458.843-.086.416-.13 1.089-.13 2.018v7.262h-.732a4.233 4.233 0 0 0-.312-1.43c-.184-.441-.435-.66-.752-.66-.416 0-1.076.256-1.981.77-2.127 1.223-4.132 1.834-6.015 1.834-4.231 0-7.471-1.155-9.72-3.467C1.125 22.012 0 18.766 0 14.584c0-2.738.569-5.147 1.706-7.226C2.843 5.28 4.414 3.666 6.419 2.517S10.71.793 13.278.793c1.516 0 2.794.208 3.833.623" mask="url(#b)"/>
        </g>
        <path fill="#1F2A4B" d="M35.414 87.084c-.624 1.53-.936 3.858-.936 6.988 0 3.13.312 5.453.936 6.97.624 1.516 1.46 2.273 2.513 2.273 1.075 0 1.919-.752 2.53-2.255.61-1.504.917-3.833.917-6.988 0-3.155-.312-5.489-.935-7.006-.624-1.516-1.462-2.274-2.512-2.274-1.052 0-1.89.765-2.513 2.292m9.115-.623c1.589 1.602 2.384 4.14 2.384 7.611 0 3.472-.795 6.003-2.384 7.592-1.59 1.59-3.791 2.385-6.602 2.385-2.788 0-4.983-.795-6.584-2.385-1.602-1.589-2.403-4.12-2.403-7.592 0-3.472.8-6.009 2.403-7.61 1.6-1.603 3.796-2.403 6.584-2.403 2.81 0 5.012.8 6.602 2.402M58.834 84.573h4.327v.733h-4.328v14.819c0 .733.13 1.252.386 1.558.255.306.666.458 1.227.458 1.052 0 1.884-.733 2.495-2.2l.622.33c-.928 2.519-2.602 3.778-5.023 3.778-1.614 0-2.837-.416-3.669-1.248-.513-.513-.861-1.154-1.044-1.925-.183-.77-.276-1.828-.276-3.172V85.306h-3.08v-.733h3.08V79.73c2.03 0 3.79-.39 5.282-1.174v6.016zM73.56 86.461c-.574 1.088-.936 2.77-1.082 5.043h5.76c.047-1.93-.143-3.526-.571-4.786-.427-1.259-1.068-1.889-1.925-1.889-.879 0-1.608.544-2.182 1.632m8.564 11.645l.661.221a8.749 8.749 0 0 1-2.623 4.053c-1.26 1.113-2.831 1.67-4.713 1.67-2.592 0-4.653-.826-6.18-2.477-1.529-1.65-2.293-4.09-2.293-7.318 0-3.3.818-5.825 2.457-7.574 1.639-1.748 3.815-2.622 6.529-2.622 4.598 0 6.897 2.713 6.897 8.142H72.552c-.025.367-.037.942-.037 1.724 0 1.614.225 2.96.678 4.035.453 1.076 1.039 1.858 1.762 2.348.72.49 1.496.733 2.328.733 2.006 0 3.619-.978 4.841-2.935M94.67 100.124c0 1.003.17 1.693.511 2.072.343.38.955.57 1.834.57v.77c-2.543-.099-4.18-.147-4.914-.147-.832 0-2.52.048-5.063.146v-.77c.856 0 1.461-.189 1.817-.569.353-.379.531-1.069.531-2.072V79.217c0-1.125-.178-1.945-.53-2.458-.357-.513-.962-.77-1.818-.77v-.77c.783.073 1.541.11 2.276.11 2.126 0 3.912-.17 5.355-.514v25.31z"/>
        <g transform="translate(100 74.26)">
            <mask id="d" fill="#fff">
                <use xlink:href="#c"/>
            </mask>
            <path fill="#1F2A4B" d="M8.277 25.864c0 1.003.172 1.693.514 2.072.34.38.953.57 1.834.57v.77c-2.543-.099-4.182-.147-4.916-.147-.83 0-2.518.048-5.061.146v-.77c.856 0 1.46-.189 1.815-.569.355-.379.533-1.069.533-2.072V4.957c0-1.125-.178-1.945-.533-2.458-.354-.513-.96-.77-1.815-.77V.96c.78.073 1.54.11 2.274.11 2.126 0 3.912-.17 5.355-.514v25.31z" mask="url(#d)"/>
        </g>
        <path fill="#FFF" d="M87.812 49.939a4.646 4.646 0 0 1-4.641-4.64 4.646 4.646 0 0 1 4.641-4.641 4.646 4.646 0 0 1 4.641 4.64 4.646 4.646 0 0 1-4.641 4.64m0-13.821a9.183 9.183 0 0 0-9.182 9.182c0 2.03.668 3.9 1.784 5.42v6.33s2.515-1.852 4.22-3.146a9.154 9.154 0 0 0 3.178.576c5.07 0 9.182-4.11 9.182-9.18a9.183 9.183 0 0 0-9.182-9.182M79.605 17.92l3.662 2.551 4.447-6.41 4.643 6.41 3.467-2.55-4.578-6.149 7.455-2.485-1.569-4.25-7.129 2.813V0h-4.447v7.85l-7.195-2.814-1.438 4.251 7.26 2.485zM64.648 41.286L57.52 44.1V36.25h-4.448v7.85l-7.195-2.814-1.438 4.251 7.259 2.485-4.578 6.148 3.663 2.551 4.448-6.41 4.643 6.41 3.464-2.55-4.578-6.149 7.455-2.485z"/>
        <g transform="translate(11 -.74)">
            <mask id="f" fill="#fff">
                <use xlink:href="#e"/>
            </mask>
            <path fill="#FFF" d="M14.003 8.59V.74H9.556v7.85L2.361 5.777l-1.438 4.25 7.26 2.486-4.579 6.147 3.663 2.55 4.447-6.41 4.643 6.41 3.466-2.55-4.578-6.147 7.455-2.486-1.569-4.25z" mask="url(#f)"/>
        </g>
        <path fill="#FFF" d="M32.132 41.286L25.004 44.1V36.25h-4.447v7.85l-7.195-2.814-1.438 4.251 7.259 2.485-4.578 6.148 3.663 2.551 4.447-6.41 4.643 6.41 3.466-2.55-4.578-6.149 7.455-2.485zM52.968 10.107v10.288h4.723v-10.35l5.199 7.182 3.24-2.346L55.376.029 44.532 14.875l3.23 2.359z"/>
        <path fill="#1F2A4B" d="M27.578 122.524h1.663v2.813h3.229v-2.813h1.662v7.545H32.47v-3.261h-3.23v3.26h-1.662z"/>
        <g transform="translate(40 122.26)">
            <mask id="h" fill="#fff">
                <use xlink:href="#g"/>
            </mask>
            <path fill="#1F2A4B" d="M2.21 4.036c0 .355.055.681.165.975.11.295.268.55.474.767.206.217.453.386.74.506.289.121.61.182.965.182.356 0 .677-.06.965-.182a2.157 2.157 0 0 0 1.215-1.273c.11-.294.165-.62.165-.975 0-.348-.055-.672-.165-.97a2.231 2.231 0 0 0-.474-.772 2.173 2.173 0 0 0-.741-.507 2.484 2.484 0 0 0-.965-.18c-.355 0-.676.06-.964.18a2.164 2.164 0 0 0-1.215 1.28c-.11.297-.165.621-.165.97m-1.727 0c0-.605.102-1.152.304-1.643.203-.49.485-.907.847-1.252a3.748 3.748 0 0 1 1.29-.794 4.663 4.663 0 0 1 1.63-.277c.59 0 1.134.093 1.63.277.498.185.928.45 1.29.794.363.345.645.762.848 1.252.202.491.304 1.038.304 1.642 0 .604-.102 1.15-.304 1.641a3.62 3.62 0 0 1-.847 1.253 3.757 3.757 0 0 1-1.29.794A4.665 4.665 0 0 1 4.554 8a4.663 4.663 0 0 1-1.63-.276 3.748 3.748 0 0 1-1.29-.794 3.62 3.62 0 0 1-.847-1.253 4.272 4.272 0 0 1-.304-1.64" mask="url(#h)"/>
        </g>
        <path fill="#1F2A4B" d="M56.426 123.994h-2.153v-1.47h5.97v1.47h-2.155v6.074h-1.662zM66.369 122.524h5.126v1.534h-3.463v1.407h3.272V127h-3.272v1.535h3.655v1.534h-5.318zM78.304 122.524h1.663v6.01h3.08v1.535h-4.743z"/>
    </g>
</svg>
