<?xml version="1.0" encoding="UTF-8"?>
<svg width="59px" height="29px" viewBox="0 0 59 29" version="1.1" xmlns="http://www.w3.org/2000/svg" xmlns:xlink="http://www.w3.org/1999/xlink">
    <!-- Generator: Sketch 51.1 (57501) - http://www.bohemiancoding.com/sketch -->
    <title>Gotell_Hotel_logo_smaller Copy@1x</title>
    <desc>Created with Sketch.</desc>
    <defs></defs>
    <g id="Page-1" stroke="none" stroke-width="1" fill="none" fill-rule="evenodd">
        <g id="About-Us-[mobile]" transform="translate(-236.000000, -16.000000)" fill="#1F2A4B" fill-rule="nonzero">
            <g id="Gotell_Hotel_logo_smaller-Copy" transform="translate(236.000000, 16.000000)">
                <g id="XMLID_15_">
                    <g id="XMLID_33_" transform="translate(0.000000, 1.000000)">
                        <path d="M9,0.5 C9.5,0.7 10.1,1 10.6,1.4 C10.8,1.5 10.9,1.6 11,1.6 C11.1,1.6 11.2,1.5 11.3,1.3 C11.4,1.1 11.4,0.8 11.5,0.4 L11.9,0.4 C11.8,1.3 11.8,2.8 11.8,5.1 L11.4,5.1 C11.3,4.2 11.1,3.5 10.9,3 C10.7,2.5 10.4,2 9.9,1.6 C9.6,1.3 9.2,1 8.8,0.9 C8.3,0.7 7.9,0.6 7.4,0.6 C6.5,0.6 5.8,0.9 5.2,1.5 C4.6,2.2 4.1,3 3.8,4 C3.6,5 3.4,6.1 3.4,7.2 C3.4,11.6 4.6,13.9 7.1,13.9 C7.7,13.9 8.1,13.8 8.5,13.5 C8.7,13.4 8.8,13.3 8.9,13.1 C9,12.9 9,12.7 9,12.5 L9,10.6 C9,10 8.9,9.6 8.8,9.3 C8.7,9 8.5,8.8 8.2,8.7 C8,8.6 7.6,8.6 7,8.6 L7,8.2 C7.8,8.2 8.9,8.3 10.3,8.3 C11.4,8.3 12.3,8.3 12.9,8.2 L12.9,8.6 C12.6,8.6 12.5,8.7 12.3,8.8 C12.2,8.9 12.1,9 12.1,9.2 C12.1,9.4 12,9.8 12,10.3 L12,14 L11.6,14 C11.6,13.7 11.5,13.5 11.4,13.2 C11.3,13 11.2,12.9 11,12.9 C10.8,12.9 10.4,13 10,13.3 C8.9,13.9 7.8,14.3 6.8,14.3 C4.6,14.3 2.9,13.7 1.7,12.5 C0.6,11.3 0,9.6 0,7.4 C0,6 0.3,4.7 0.9,3.6 C1.5,2.5 2.3,1.6 3.4,1 C4.4,0.4 5.6,0.1 7,0.1 C7.8,0.1 8.4,0.2 9,0.5 Z" id="XMLID_34_"></path>
                    </g>
                    <g id="XMLID_29_" transform="translate(15.000000, 4.000000)">
                        <path d="M8.3,2.1 C9.1,2.9 9.6,4.3 9.6,6.1 C9.6,7.9 9.2,9.2 8.3,10.1 C7.5,10.9 6.3,11.4 4.8,11.4 C3.3,11.4 2.2,11 1.3,10.1 C0.5,9.3 0,7.9 0,6.1 C0,4.3 0.4,2.9 1.3,2.1 C2.1,1.3 3.3,0.8 4.8,0.8 C6.4,0.8 7.5,1.2 8.3,2.1 Z M3.6,2.4 C3.3,3.2 3.1,4.4 3.1,6.1 C3.1,7.8 3.3,9 3.6,9.8 C3.9,10.6 4.4,11 4.9,11 C5.5,11 5.9,10.6 6.2,9.8 C6.5,9 6.7,7.8 6.7,6.1 C6.7,4.4 6.5,3.2 6.2,2.4 C5.9,1.6 5.4,1.2 4.9,1.2 C4.3,1.2 3.9,1.6 3.6,2.4 Z" id="XMLID_30_"></path>
                    </g>
                    <g id="XMLID_26_" transform="translate(26.000000, 1.000000)">
                        <path d="M4.8,4.1 L7.1,4.1 L7.1,4.5 L4.8,4.5 L4.8,12.3 C4.8,12.7 4.9,13 5,13.1 C5.1,13.3 5.3,13.3 5.6,13.3 C6.2,13.3 6.6,12.9 6.9,12.1 L7.2,12.3 C6.7,13.6 5.8,14.3 4.6,14.3 C3.8,14.3 3.1,14.1 2.7,13.6 C2.4,13.3 2.2,13 2.2,12.6 C2.1,12.2 2.1,11.6 2.1,10.9 L2.1,4.5 L0.5,4.5 L0.5,4.1 L2.1,4.1 L2.1,1.5 C3.2,1.5 4.1,1.3 4.9,0.9 L4.9,4.1 L4.8,4.1 Z" id="XMLID_27_"></path>
                    </g>
                    <g id="XMLID_22_" transform="translate(35.000000, 4.000000)">
                        <path d="M8.1,8.2 L8.4,8.3 C8.1,9.1 7.7,9.8 7,10.4 C6.3,11 5.5,11.3 4.5,11.3 C3.1,11.3 2.1,10.9 1.3,10 C0.5,9.1 0.1,7.9 0.1,6.2 C0.1,4.5 0.5,3.1 1.4,2.2 C2.3,1.3 3.4,0.8 4.8,0.8 C7.2,0.8 8.4,2.2 8.4,5.1 L3,5.1 C3,5.3 3,5.6 3,6 C3,6.8 3.1,7.6 3.4,8.1 C3.6,8.7 3.9,9.1 4.3,9.3 C4.7,9.6 5.1,9.7 5.5,9.7 C6.6,9.7 7.4,9.2 8.1,8.2 Z M3.6,2.1 C3.3,2.7 3.1,3.6 3,4.7 L6,4.7 C6,3.7 5.9,2.9 5.7,2.2 C5.5,1.5 5.1,1.2 4.7,1.2 C4.3,1.2 3.9,1.5 3.6,2.1 Z" id="XMLID_23_"></path>
                    </g>
                    <g id="XMLID_19_" transform="translate(45.000000, 0.000000)">
                        <path d="M4.6,13.2 C4.6,13.7 4.7,14.1 4.9,14.3 C5.1,14.5 5.4,14.6 5.9,14.6 L5.9,15 C4.6,14.9 3.7,14.9 3.3,14.9 C2.9,14.9 2,14.9 0.6,15 L0.6,14.6 C1,14.6 1.4,14.5 1.6,14.3 C1.8,14.1 1.9,13.7 1.9,13.2 L1.9,2.2 C1.9,1.6 1.8,1.2 1.6,0.9 C1.4,0.6 1.1,0.5 0.6,0.5 L0.6,0.2 C1,0.2 1.4,0.3 1.8,0.3 C2.9,0.3 3.9,0.2 4.6,5.55111512e-17 L4.6,13.2 Z" id="XMLID_20_"></path>
                    </g>
                    <g id="XMLID_16_" transform="translate(52.000000, 0.000000)">
                        <path d="M4.8,13.2 C4.8,13.7 4.9,14.1 5.1,14.3 C5.3,14.5 5.6,14.6 6.1,14.6 L6.1,15 C4.8,14.9 3.9,14.9 3.5,14.9 C3.1,14.9 2.2,14.9 0.8,15 L0.8,14.6 C1.2,14.6 1.6,14.5 1.8,14.3 C2,14.1 2.1,13.7 2.1,13.2 L2.1,2.2 C2.1,1.6 2,1.2 1.8,0.9 C1.6,0.6 1.3,0.5 0.8,0.5 L0.8,0.2 C1.2,0.2 1.6,0.3 2,0.3 C3.1,0.3 4.1,0.2 4.8,5.55111512e-17 L4.8,13.2 Z" id="XMLID_17_"></path>
                    </g>
                </g>
                <g id="XMLID_3_" transform="translate(14.000000, 24.000000)">
                    <polygon id="XMLID_13_" points="0.5 1 1.4 1 1.4 2.5 3 2.5 3 1 3.9 1 3.9 5 3 5 3 3.3 1.3 3.3 1.3 5 0.4 5 0.4 1"></polygon>
                    <path d="M7.2,2.9 C7.2,2.6 7.3,2.3 7.4,2 C7.5,1.7 7.7,1.5 7.8,1.3 C8,1.1 8.2,1 8.5,0.9 C8.8,0.8 9,0.8 9.4,0.8 C9.7,0.8 10,0.8 10.3,0.9 C10.6,1 10.8,1.1 11,1.3 C11.2,1.5 11.3,1.7 11.4,2 C11.5,2.3 11.6,2.5 11.6,2.9 C11.6,3.2 11.5,3.5 11.4,3.8 C11.3,4.1 11.1,4.3 11,4.5 C10.8,4.7 10.6,4.8 10.3,4.9 C10,5 9.7,5 9.4,5 C9.1,5 8.8,5 8.5,4.9 C8.2,4.8 8,4.7 7.8,4.5 C7.6,4.3 7.5,4.1 7.4,3.8 C7.3,3.6 7.2,3.3 7.2,2.9 Z M8.1,2.9 C8.1,3.1 8.1,3.3 8.2,3.4 C8.3,3.6 8.3,3.7 8.4,3.8 C8.5,3.9 8.6,4 8.8,4.1 C9,4.2 9.1,4.2 9.3,4.2 C9.5,4.2 9.7,4.2 9.8,4.1 C10,4 10.1,3.9 10.2,3.8 C10.3,3.7 10.4,3.6 10.4,3.4 C10.5,3.2 10.5,3.1 10.5,2.9 C10.5,2.7 10.5,2.5 10.4,2.4 C10.3,2.2 10.3,2.1 10.2,2 C10.1,1.9 10,1.8 9.8,1.7 C9.6,1.6 9.5,1.6 9.3,1.6 C9.1,1.6 8.9,1.6 8.8,1.7 C8.6,1.8 8.5,1.9 8.4,2 C8.3,2.1 8.2,2.2 8.2,2.4 C8.2,2.6 8.1,2.8 8.1,2.9 Z" id="XMLID_10_"></path>
                    <polygon id="XMLID_8_" points="15.6 1.7 14.5 1.7 14.5 1 17.6 1 17.6 1.8 16.5 1.8 16.5 5 15.6 5"></polygon>
                    <polygon id="XMLID_6_" points="20.8 1 23.5 1 23.5 1.8 21.7 1.8 21.7 2.5 23.4 2.5 23.4 3.3 21.7 3.3 21.7 4.1 23.6 4.1 23.6 4.9 20.8 4.9 20.8 1"></polygon>
                    <polygon id="XMLID_4_" points="27.1 1 28 1 28 4.2 29.6 4.2 29.6 5 27.1 5"></polygon>
                </g>
            </g>
        </g>
    </g>
</svg>