<svg xmlns="http://www.w3.org/2000/svg" width="83" height="16" viewBox="0 0 83 16">
    <g fill="#FED594" fill-rule="evenodd">
        <path d="M68.063 13.785l2.817 1.962 3.42-4.93 3.572 4.93 2.667-1.962-3.521-4.73 1.695-.565 4.04-1.346-1.208-3.27-5.483 2.164V0H72.64v6.038l-5.535-2.164L66 7.144l5.585 1.911zM37.545 3.874l-5.483 2.164V0h-3.421v6.038l-5.535-2.164L22 7.144l5.584 1.911-3.522 4.73 2.818 1.962 3.422-4.932 3.571 4.932 2.665-1.962-3.522-4.73 5.735-1.911zM15.545 3.874l-5.483 2.164V0H6.641v6.038L1.106 3.874 0 7.144l5.584 1.911-3.522 4.73 2.818 1.962 3.422-4.932 3.571 4.932 2.665-1.962-3.522-4.73 5.735-1.911zM59.545 3.874l-5.483 2.164V0h-3.421v6.038l-5.535-2.164L44 7.144l5.584 1.911-3.522 4.73 2.818 1.962 3.422-4.932 3.571 4.932 2.665-1.962-3.522-4.73 5.735-1.911z"/>
    </g>
</svg>
